<?xml version="1.0" standalone="no"?>
<!DOCTYPE svg PUBLIC "-//W3C//DTD SVG 20010904//EN"
 "http://www.w3.org/TR/2001/REC-SVG-20010904/DTD/svg10.dtd">
<svg version="1.0" xmlns="http://www.w3.org/2000/svg"
 width="256.000000pt" height="256.000000pt" viewBox="0 0 256.000000 256.000000"
 preserveAspectRatio="xMidYMid meet">

<g transform="translate(0.000000,256.000000) scale(0.100000,-0.100000)"
fill="#000000" stroke="none">
<path d="M614 2315 c-261 -58 -476 -248 -567 -501 -41 -113 -50 -208 -44 -461
4 -197 7 -238 26 -303 77 -262 278 -462 541 -541 70 -21 99 -23 417 -27 l343
-4 -6 -26 c-4 -15 -19 -51 -35 -81 -34 -64 -36 -94 -9 -121 39 -39 174 -19
308 46 52 26 95 57 146 109 68 68 77 73 127 80 322 40 579 257 670 565 19 65
22 106 26 310 4 179 1 255 -10 320 -55 318 -295 569 -608 635 -98 21 -1231 20
-1325 0z m1376 -159 c156 -59 285 -172 354 -309 59 -118 70 -176 70 -391 l1
-189 -560 -323 -560 -324 -275 0 c-291 1 -379 10 -478 49 -172 68 -310 216
-369 395 -25 76 -27 94 -31 311 -4 271 5 334 69 465 78 159 243 292 414 334
50 12 164 14 675 13 l615 -2 75 -29z"/>
</g>
</svg>
